<?xml version="1.0" encoding="UTF-8"?>
<svg id="Layer_1" data-name="Layer 1" xmlns="http://www.w3.org/2000/svg" version="1.1">
  <defs>
    <style>
      .cls-1 {
        fill: url(#linear-gradient);
      }

      .cls-1, .cls-2, .cls-3, .cls-4, .cls-5, .cls-6, .cls-7, .cls-8 {
        stroke-width: 0px;
      }

      .cls-2 {
        fill: #fbad41;
      }

      .cls-3 {
        fill: #1d1d1d;
      }

      .cls-9 {
        stroke: #dbe1e2;
        stroke-width: .6px;
      }

      .cls-9, .cls-4 {
        fill: none;
      }

      .cls-5 {
        fill: #f6821f;
      }

      .cls-6 {
        fill: url(#linear-gradient-2);
      }

      .cls-10 {
        clip-path: url(#clippath);
      }

      .cls-7 {
        fill: #231f20;
      }

      .cls-8 {
        fill: #fff;
      }
    </style>
    <clipPath id="clippath">
      <rect class="cls-4" x="1" y="1" width="310" height="270" rx="5" ry="5"/>
    </clipPath>
    <linearGradient id="linear-gradient" x1="17.2" y1="158.4" x2="165" y2="158.4" gradientTransform="translate(0 274) scale(1 -1)" gradientUnits="userSpaceOnUse">
      <stop offset="0" stop-color="#ebeced"/>
      <stop offset="1" stop-color="#f7f7f7"/>
    </linearGradient>
    <linearGradient id="linear-gradient-2" x1="17.2" y1="144.2" x2="146.2" y2="144.2" gradientTransform="translate(0 274) scale(1 -1)" gradientUnits="userSpaceOnUse">
      <stop offset="0" stop-color="#ebeced"/>
      <stop offset="1" stop-color="#f7f7f7"/>
    </linearGradient>
  </defs>
  <g class="cls-10">
    <g>
      <path class="cls-8" d="M38.2,44.3l-2.8-.7-.5-.2h-12.8v6.7h16.1c0,0,0-5.8,0-5.8Z"/>
      <path class="cls-5" d="M75.8,73.5c.5-1.9.4-3.7-.5-4.9-.9-1.1-2.1-1.9-3.7-2.1l-30.7-.4c-.2,0-.4-.2-.5-.2-.2-.2-.2-.4,0-.6.2-.4.4-.6.7-.6l30.9-.4c3.7-.2,7.6-3.4,9-7.1l1.8-4.9c0-.2.2-.4,0-.6-1.9-9.6-10.1-16.7-19.6-16.7s-16.4,6-19.1,14.4c-1.8-1.3-3.9-2.1-6.4-1.9-4.2.4-7.6,4.1-8.1,8.6-.2,1.1,0,2.2.2,3.4-6.9.2-12.5,6.2-12.5,13.7s0,1.3.2,2.1c0,.4.4.6.5.6h56.7c.4,0,.7-.2.7-.6l.5-2.1Z"/>
      <path class="cls-2" d="M85.6,52.5h-.9c-.2,0-.4.2-.5.4l-1.2,4.5c-.5,1.9-.4,3.7.5,4.9.9,1.1,2.1,1.9,3.7,2.1l6.5.4c.2,0,.4.2.5.2.2.2.2.4,0,.6-.2.4-.4.6-.7.6l-6.7.4c-3.7.2-7.6,3.4-9,7.1l-.4,1.7c-.2.2,0,.6.4.6h23.3c.4,0,.5-.2.5-.6.4-1.5.7-3.2.7-4.9,0-9.7-7.6-17.8-16.8-17.8Z"/>
      <path class="cls-3" d="M21.4,98.9l-3.4-12.7h2.4l2.2,9.5h.1l2.5-9.5h2l2.5,9.5h.1l2.2-9.5h2.3l-3.4,12.7h-2.1l-2.6-9.1h-.1l-2.6,9.1h-2.1ZM39.6,99.1c-2.9,0-4.6-1.9-4.6-5h0c0-3.1,1.8-5,4.6-5s4.6,1.9,4.6,5h0c0,3.1-1.7,5-4.6,5ZM39.6,97.3c1.5,0,2.4-1.2,2.4-3.2h0c0-2-.9-3.2-2.4-3.2s-2.4,1.2-2.4,3.2h0c0,2,.9,3.2,2.4,3.2ZM46.4,98.9v-9.6h2.2v1.5h.1c.3-1,1.2-1.6,2.5-1.6s.7,0,.9.1v2c-.4,0-.7-.1-1.1-.1-1.5,0-2.4.9-2.4,2.2v5.6h-2.2ZM54,98.9v-13.3h2.2v7.7h.1l3.5-3.9h2.5l-3.9,4.1,4.1,5.5h-2.6l-3.1-4.2-.8.8v3.4h-2.2ZM68,99.1c-2.9,0-4.6-1.9-4.6-5h0c0-3,1.7-5,4.5-5s4.4,1.9,4.4,4.8v.7h-6.7c0,1.7,1,2.7,2.4,2.7s1.9-.6,2.1-1h0c0,0,2.1,0,2.1,0h0c-.3,1.3-1.6,2.8-4.2,2.8ZM67.9,90.8c-1.2,0-2.1.8-2.3,2.4h4.6c-.1-1.6-1-2.4-2.3-2.4ZM74.5,98.9v-9.6h2.2v1.5h.1c.3-1,1.2-1.6,2.5-1.6s.7,0,.9.1v2c-.4,0-.7-.1-1.1-.1-1.5,0-2.4.9-2.4,2.2v5.6h-2.2ZM85.4,99.1c-2.4,0-3.9-1.1-4.1-2.8h0s2.2,0,2.2,0h0c.2.7.9,1.2,2,1.2s1.8-.5,1.8-1.2h0c0-.6-.4-.9-1.5-1.2l-1.6-.4c-1.8-.4-2.7-1.3-2.7-2.7h0c0-1.7,1.6-2.9,3.8-2.9s3.7,1.2,3.9,2.7h0s-2.1,0-2.1,0h0c-.2-.6-.8-1.1-1.8-1.1s-1.7.5-1.7,1.2h0c0,.6.4.9,1.4,1.2l1.6.3c1.9.4,2.8,1.2,2.8,2.6h0c0,1.8-1.7,3.1-4.1,3.1ZM95.7,98.9l4.5-12.7h2.6l4.5,12.7h-2.4l-1.1-3.3h-4.7l-1.1,3.3h-2.4ZM101.4,88.6l-1.7,5.3h3.6l-1.7-5.3h-.1ZM109.5,98.9v-12.7h2.3v12.7h-2.3Z"/>
      <rect class="cls-1" x="17.2" y="112.4" width="147.7" height="6.5"/>
      <rect class="cls-6" x="17.2" y="126.5" width="129" height="6.5"/>
    </g>
  </g>
  <rect class="cls-9" x=".7" y=".7" width="310.6" height="270.6" rx="5.4" ry="5.4"/>
  <g>
    <g id="circuit">
      <path class="cls-7" d="M247.2,119.1h-37c-4,0-7.3-3.3-7.3-7.3v-37c0-4,3.3-7.3,7.3-7.3h37c4,0,7.3,3.3,7.3,7.3v37c0,4-3.3,7.3-7.3,7.3ZM210.2,69.7c-2.8,0-5.1,2.3-5.1,5.1v37c0,2.8,2.3,5.1,5.1,5.1h37c2.8,0,5.1-2.3,5.1-5.1v-37c0-2.8-2.3-5.1-5.1-5.1h-37Z"/>
      <g>
        <rect class="cls-7" x="227.5" y="45.1" width="2.3" height="23.4"/>
        <path class="cls-7" d="M228.7,46.3c-2.4,0-4.3-1.9-4.3-4.3s1.9-4.3,4.3-4.3,4.3,1.9,4.3,4.3-1.9,4.3-4.3,4.3ZM228.7,39.9c-1.1,0-2,.9-2,2s.9,2,2,2,2-.9,2-2-.9-2-2-2Z"/>
        <g>
          <g>
            <path class="cls-7" d="M215.1,58c-2.4,0-4.3-1.9-4.3-4.3s1.9-4.3,4.3-4.3,4.3,1.9,4.3,4.3-1.9,4.3-4.3,4.3ZM215.1,51.6c-1.1,0-2,.9-2,2s.9,2,2,2,2-.9,2-2-.9-2-2-2Z"/>
            <rect class="cls-7" x="214" y="56.8" width="2.3" height="11.7"/>
          </g>
          <g>
            <path class="cls-7" d="M242.2,58c-2.4,0-4.3-1.9-4.3-4.3s1.9-4.3,4.3-4.3,4.3,1.9,4.3,4.3-1.9,4.3-4.3,4.3ZM242.2,51.6c-1.1,0-2,.9-2,2s.9,2,2,2,2-.9,2-2-.9-2-2-2Z"/>
            <rect class="cls-7" x="241.1" y="56.8" width="2.3" height="11.7"/>
          </g>
        </g>
      </g>
      <g>
        <rect class="cls-7" x="180.6" y="92.1" width="23.4" height="2.3"/>
        <path class="cls-7" d="M177.4,97.6c-2.4,0-4.3-1.9-4.3-4.3s1.9-4.3,4.3-4.3,4.3,1.9,4.3,4.3-1.9,4.3-4.3,4.3ZM177.4,91.2c-1.1,0-2,.9-2,2s.9,2,2,2,2-.9,2-2-.9-2-2-2Z"/>
        <g>
          <g>
            <path class="cls-7" d="M189.1,111.1c-2.4,0-4.3-1.9-4.3-4.3s1.9-4.3,4.3-4.3,4.3,1.9,4.3,4.3-1.9,4.3-4.3,4.3ZM189.1,104.8c-1.1,0-2,.9-2,2s.9,2,2,2,2-.9,2-2-.9-2-2-2Z"/>
            <rect class="cls-7" x="192.3" y="105.6" width="11.7" height="2.3"/>
          </g>
          <g>
            <path class="cls-7" d="M189.1,84c-2.4,0-4.3-1.9-4.3-4.3s1.9-4.3,4.3-4.3,4.3,1.9,4.3,4.3-1.9,4.3-4.3,4.3ZM189.1,77.7c-1.1,0-2,.9-2,2s.9,2,2,2,2-.9,2-2-.9-2-2-2Z"/>
            <rect class="cls-7" x="192.3" y="78.5" width="11.7" height="2.3"/>
          </g>
        </g>
      </g>
      <g>
        <rect class="cls-7" x="227.5" y="117.9" width="2.3" height="23.4"/>
        <path class="cls-7" d="M228.7,148.8c-2.4,0-4.3-1.9-4.3-4.3s1.9-4.3,4.3-4.3,4.3,1.9,4.3,4.3-1.9,4.3-4.3,4.3ZM228.7,142.5c-1.1,0-2,.9-2,2s.9,2,2,2,2-.9,2-2-.9-2-2-2Z"/>
        <g>
          <g>
            <path class="cls-7" d="M242.2,137.1c-2.4,0-4.3-1.9-4.3-4.3s1.9-4.3,4.3-4.3,4.3,1.9,4.3,4.3-1.9,4.3-4.3,4.3ZM242.2,130.8c-1.1,0-2,.9-2,2s.9,2,2,2,2-.9,2-2-.9-2-2-2Z"/>
            <rect class="cls-7" x="241.1" y="117.9" width="2.3" height="11.7"/>
          </g>
          <g>
            <path class="cls-7" d="M215.1,137.1c-2.4,0-4.3-1.9-4.3-4.3s1.9-4.3,4.3-4.3,4.3,1.9,4.3,4.3-1.9,4.3-4.3,4.3ZM215.1,130.8c-1.1,0-2,.9-2,2s.9,2,2,2,2-.9,2-2-.9-2-2-2Z"/>
            <rect class="cls-7" x="214" y="117.9" width="2.3" height="11.7"/>
          </g>
        </g>
      </g>
      <g>
        <rect class="cls-7" x="253.4" y="92.1" width="23.4" height="2.3"/>
        <path class="cls-7" d="M279.9,97.6c-2.4,0-4.3-1.9-4.3-4.3s1.9-4.3,4.3-4.3,4.3,1.9,4.3,4.3-1.9,4.3-4.3,4.3ZM279.9,91.2c-1.1,0-2,.9-2,2s.9,2,2,2,2-.9,2-2-.9-2-2-2Z"/>
        <g>
          <g>
            <path class="cls-7" d="M268.2,84c-2.4,0-4.3-1.9-4.3-4.3s1.9-4.3,4.3-4.3,4.3,1.9,4.3,4.3-1.9,4.3-4.3,4.3ZM268.2,77.7c-1.1,0-2,.9-2,2s.9,2,2,2,2-.9,2-2-.9-2-2-2Z"/>
            <rect class="cls-7" x="253.4" y="78.5" width="11.7" height="2.3"/>
          </g>
          <g>
            <path class="cls-7" d="M268.2,111.1c-2.4,0-4.3-1.9-4.3-4.3s1.9-4.3,4.3-4.3,4.3,1.9,4.3,4.3-1.9,4.3-4.3,4.3ZM268.2,104.8c-1.1,0-2,.9-2,2s.9,2,2,2,2-.9,2-2-.9-2-2-2Z"/>
            <rect class="cls-7" x="253.4" y="105.6" width="11.7" height="2.3"/>
          </g>
        </g>
      </g>
    </g>
    <g id="text">
      <path class="cls-7" d="M220.9,97.7l-2.5,7.7h-3.3l8.3-24.4h3.8l8.3,24.4h-3.4l-2.6-7.7h-8.6ZM228.9,95.3l-2.4-7c-.5-1.6-.9-3-1.3-4.4h0c-.4,1.4-.8,2.9-1.2,4.4l-2.4,7h7.3Z"/>
      <path class="cls-7" d="M242.2,81v24.4h-3.1v-24.4h3.1Z"/>
    </g>
  </g>
</svg>